# xmcd CD database file
#
# Track frame offsets:
#	150
#	19395
#	42725
#	60529
#	89165
#	107466
#	130165
#	150446
#	175164
#	197562
#	215000
#	235194
#	255575
#	275127
#	295800
#	315866
#	337554
#
# Disc length: 4776 seconds
#
# Revision: 0
# Processed by: cddbd v1.5.1PL0 Copyright (c) Steve Scherf et al.
# Submitted via: Feurio! 1.66 - http://www.feurio.com
#
DISCID=ef12a611
DTITLE=Various Artist - Body and Soul: No Control
DYEAR=1900
DGENRE=
TTITLE0=Bump 'N' Grind
TTITLE1=Do Me Again
TTITLE2=I'll Make Love to You
TTITLE3=All the Things (Your Man Won't Do)
TTITLE4=Crazy Love
TTITLE5=Tell Me What You Want to Do
TTITLE6=Ready or Not
TTITLE7=It's All About You
TTITLE8=Every Time I Close My Eyes
TTITLE9=I Like the Way (The Kissing Game)
TTITLE10=Last Night
TTITLE11=Stroke You Up
TTITLE12=Don't Take It Personal (Just One of Dem Days)
TTITLE13=Freak Me
TTITLE14=Lately
TTITLE15=At Your Best (You Are Love)
TTITLE16=Get Here
EXTD=
EXTT0=
EXTT1=
EXTT2=
EXTT3=
EXTT4=
EXTT5=
EXTT6=
EXTT7=
EXTT8=
EXTT9=
EXTT10=
EXTT11=
EXTT12=
EXTT13=
EXTT14=
EXTT15=
EXTT16=
PLAYORDER=
